<svg width="18" height="18" viewBox="0 0 18 18" fill="none" xmlns="http://www.w3.org/2000/svg">
<path d="M16.4165 0.666016H1.58317C1.34006 0.666016 1.1069 0.762593 0.934989 0.934501C0.763081 1.10641 0.666504 1.33957 0.666504 1.58268V16.416C0.666504 16.6591 0.763081 16.8923 0.934989 17.0642C1.1069 17.2361 1.34006 17.3327 1.58317 17.3327H9.5665V10.8743H7.39984V8.37435H9.5665V6.49935C9.52162 6.05915 9.57359 5.61445 9.71877 5.19646C9.86394 4.77847 10.0988 4.3973 10.4069 4.07969C10.715 3.76208 11.0888 3.51572 11.5022 3.35788C11.9156 3.20004 12.3585 3.13456 12.7998 3.16602C13.4484 3.16202 14.0967 3.19541 14.7415 3.26602V5.51602H13.4165C12.3665 5.51602 12.1665 6.01602 12.1665 6.74102V8.34935H14.6665L14.3415 10.8493H12.1665V17.3327H16.4165C16.5369 17.3327 16.6561 17.309 16.7673 17.2629C16.8785 17.2168 16.9796 17.1493 17.0647 17.0642C17.1498 16.9791 17.2173 16.878 17.2634 16.7668C17.3095 16.6556 17.3332 16.5364 17.3332 16.416V1.58268C17.3332 1.4623 17.3095 1.3431 17.2634 1.23189C17.2173 1.12067 17.1498 1.01962 17.0647 0.934501C16.9796 0.849381 16.8785 0.78186 16.7673 0.735793C16.6561 0.689726 16.5369 0.666016 16.4165 0.666016Z" fill="white"/>
</svg>
