<svg width="20" height="20" viewBox="0 0 20 20" fill="none" xmlns="http://www.w3.org/2000/svg">
<path fill-rule="evenodd" clip-rule="evenodd" d="M17.0585 1.66613H2.9418C2.78311 1.66393 2.62555 1.69301 2.4781 1.7517C2.33066 1.8104 2.19622 1.89757 2.08246 2.00823C1.96871 2.11888 1.87786 2.25087 1.81512 2.39664C1.75238 2.54241 1.71897 2.69911 1.7168 2.8578V17.1411C1.71897 17.2998 1.75238 17.4565 1.81512 17.6023C1.87786 17.7481 1.96871 17.88 2.08246 17.9907C2.19622 18.1014 2.33066 18.1885 2.4781 18.2472C2.62555 18.3059 2.78311 18.335 2.9418 18.3328H17.0585C17.2171 18.335 17.3747 18.3059 17.5222 18.2472C17.6696 18.1885 17.804 18.1014 17.9178 17.9907C18.0316 17.88 18.1224 17.7481 18.1851 17.6023C18.2479 17.4565 18.2813 17.2998 18.2835 17.1411V2.8578C18.2813 2.69911 18.2479 2.54241 18.1851 2.39664C18.1224 2.25087 18.0316 2.11888 17.9178 2.00823C17.804 1.89757 17.6696 1.8104 17.5222 1.7517C17.3747 1.69301 17.2171 1.66393 17.0585 1.66613ZM15.5 6.25C15.5 6.94036 14.9404 7.5 14.25 7.5C13.5596 7.5 13 6.94036 13 6.25C13 5.55964 13.5596 5 14.25 5C14.9404 5 15.5 5.55964 15.5 6.25ZM10 13.75C12.0711 13.75 13.75 12.0711 13.75 10C13.75 7.92893 12.0711 6.25 10 6.25C7.92893 6.25 6.25 7.92893 6.25 10C6.25 12.0711 7.92893 13.75 10 13.75ZM9.99984 12.0827C11.1504 12.0827 12.0832 11.1499 12.0832 9.99935C12.0832 8.84876 11.1504 7.91602 9.99984 7.91602C8.84924 7.91602 7.9165 8.84876 7.9165 9.99935C7.9165 11.1499 8.84924 12.0827 9.99984 12.0827Z" fill="white"/>
</svg>
