<svg width="172" height="48" viewBox="0 0 172 48" fill="none" xmlns="http://www.w3.org/2000/svg">
<g clip-path="url(#clip0_1367_10306)">
<path d="M90.7216 0.0406603C90.7216 0.0406603 88.9591 -0.239731 86.5157 1.24234C84.9936 2.16362 84.4328 2.04345 84.1925 1.80312C84.0723 1.60284 83.7919 1.6429 83.7118 1.84318C83.5917 2.12357 83.6718 2.52413 84.553 3.08491C86.2353 4.12636 89.56 4.60703 92.2838 4.16642C95.0076 3.7258 96.3294 3.76586 96.3294 3.76586C96.3294 3.76586 96.6899 3.04485 95.7286 2.52413C94.7672 2.04345 92.0835 -0.0795074 90.7216 0.0406603Z" fill="white"/>
<path d="M72.3355 7.89059C74.9792 6.00797 78.1436 4.56595 81.5484 4.64607C81.7887 4.64607 82.0291 4.64607 82.2694 4.60601C83.1907 4.5259 85.9545 4.60601 89.5195 8.21104C93.8456 12.6172 96.8898 9.21244 97.0901 9.01216C97.2503 8.85193 101.176 7.08948 104.14 9.73316C104.18 9.77322 104.18 9.77322 104.22 9.81328C106.143 11.5357 105.342 14.7001 102.818 15.3009C97.8111 16.4225 90.2005 17.3438 82.71 15.2208C79.2652 14.2194 76.3812 13.7788 74.0179 13.6987C71.0137 13.4984 69.8921 9.65305 72.3355 7.89059Z" fill="white"/>
<path d="M60.0391 20.6292C60.0391 20.6292 68.2505 16.3432 81.5491 17.3046C94.8076 18.306 102.498 20.469 110.269 17.3046C110.269 17.3046 106.384 21.7908 79.3861 20.9096C79.3861 20.9096 61.8816 20.2687 60.0391 20.6292Z" fill="white"/>
<path d="M53.75 24.5947C53.75 24.5947 72.7365 23.4731 79.7062 22.672C86.6759 21.8709 116.357 23.9939 118.52 24.7149C120.683 25.4359 96.6499 24.9953 90.2009 26.4373C83.7919 27.8793 58.5968 27.1583 53.75 24.5947Z" fill="white"/>
</g>
<path d="M1.12705 43.5527V34.0475H2.94663L6.99316 40.7555H6.02905L10.0077 34.0475H11.8137L11.8408 43.5527H9.77684L9.76326 37.2114H10.1435L6.966 42.5479H5.97474L2.72937 37.2114H3.19105V43.5527H1.12705ZM17.4228 43.6614C16.6443 43.6614 15.9518 43.4984 15.3453 43.1725C14.7478 42.8466 14.2725 42.4031 13.9195 41.8418C13.5755 41.2715 13.4035 40.6242 13.4035 39.9C13.4035 39.1667 13.5755 38.5195 13.9195 37.9582C14.2725 37.3879 14.7478 36.9443 15.3453 36.6275C15.9518 36.3016 16.6443 36.1386 17.4228 36.1386C18.1923 36.1386 18.8803 36.3016 19.4868 36.6275C20.0934 36.9443 20.5686 37.3834 20.9126 37.9446C21.2566 38.5059 21.4286 39.1577 21.4286 39.9C21.4286 40.6242 21.2566 41.2715 20.9126 41.8418C20.5686 42.4031 20.0934 42.8466 19.4868 43.1725C18.8803 43.4984 18.1923 43.6614 17.4228 43.6614ZM17.4228 41.9233C17.7759 41.9233 18.0927 41.8418 18.3734 41.6788C18.654 41.5159 18.8758 41.2851 19.0387 40.9863C19.2017 40.6785 19.2832 40.3164 19.2832 39.9C19.2832 39.4745 19.2017 39.1124 19.0387 38.8137C18.8758 38.5149 18.654 38.2841 18.3734 38.1212C18.0927 37.9582 17.7759 37.8767 17.4228 37.8767C17.0698 37.8767 16.753 37.9582 16.4723 38.1212C16.1917 38.2841 15.9654 38.5149 15.7934 38.8137C15.6304 39.1124 15.549 39.4745 15.549 39.9C15.549 40.3164 15.6304 40.6785 15.7934 40.9863C15.9654 41.2851 16.1917 41.5159 16.4723 41.6788C16.753 41.8418 17.0698 41.9233 17.4228 41.9233ZM25.927 43.6614C25.3205 43.6614 24.7773 43.5437 24.2975 43.3083C23.8268 43.0729 23.4601 42.7154 23.1976 42.2356C22.9351 41.7467 22.8038 41.1266 22.8038 40.3753V36.2473H24.9221V40.0629C24.9221 40.6695 25.0489 41.1176 25.3024 41.4073C25.5649 41.6879 25.9315 41.8282 26.4022 41.8282C26.7281 41.8282 27.0178 41.7603 27.2713 41.6245C27.5248 41.4797 27.7239 41.2624 27.8688 40.9727C28.0136 40.674 28.086 40.3028 28.086 39.8593V36.2473H30.2044V43.5527H28.1947V41.5431L28.5613 42.1269C28.3169 42.6339 27.9548 43.0186 27.475 43.2812C27.0042 43.5346 26.4882 43.6614 25.927 43.6614ZM36.6071 36.1386C37.1865 36.1386 37.7025 36.2563 38.1551 36.4917C38.6168 36.718 38.9789 37.071 39.2415 37.5508C39.504 38.0216 39.6352 38.6281 39.6352 39.3704V43.5527H37.5169V39.6963C37.5169 39.1079 37.3857 38.6734 37.1231 38.3927C36.8697 38.1121 36.5076 37.9718 36.0368 37.9718C35.7019 37.9718 35.3986 38.0442 35.127 38.1891C34.8645 38.3248 34.6563 38.5376 34.5024 38.8273C34.3576 39.1169 34.2851 39.4881 34.2851 39.9407V43.5527H32.1668V36.2473H34.1901V38.2705L33.8099 37.6595C34.0724 37.1706 34.4481 36.7949 34.9369 36.5324C35.4258 36.2699 35.9825 36.1386 36.6071 36.1386ZM44.5428 43.6614C43.6828 43.6614 43.0129 43.4441 42.5331 43.0096C42.0533 42.566 41.8134 41.9097 41.8134 41.0406V34.6314H43.9317V41.0135C43.9317 41.3213 44.0132 41.5612 44.1761 41.7332C44.3391 41.8961 44.5609 41.9776 44.8415 41.9776C45.1764 41.9776 45.4616 41.8871 45.697 41.706L46.2673 43.1997C46.05 43.3536 45.7875 43.4713 45.4797 43.5527C45.181 43.6252 44.8687 43.6614 44.5428 43.6614ZM40.6863 38.0397V36.4102H45.7513V38.0397H40.6863ZM51.9375 43.5527V42.1269L51.8017 41.8146V39.2618C51.8017 38.8092 51.6614 38.4561 51.3807 38.2026C51.1091 37.9492 50.6882 37.8224 50.1179 37.8224C49.7286 37.8224 49.3439 37.8858 48.9637 38.0125C48.5925 38.1302 48.2757 38.2932 48.0131 38.5014L47.2527 37.0213C47.651 36.7406 48.1308 36.5234 48.6921 36.3695C49.2534 36.2156 49.8237 36.1386 50.403 36.1386C51.5165 36.1386 52.381 36.4012 52.9966 36.9262C53.6122 37.4513 53.92 38.2705 53.92 39.384V43.5527H51.9375ZM49.7105 43.6614C49.1402 43.6614 48.6514 43.5663 48.244 43.3762C47.8366 43.1771 47.5243 42.91 47.307 42.5751C47.0898 42.2401 46.9811 41.8644 46.9811 41.448C46.9811 41.0135 47.0852 40.6333 47.2935 40.3074C47.5107 39.9815 47.8502 39.728 48.3119 39.5469C48.7736 39.3568 49.3756 39.2618 50.1179 39.2618H52.0597V40.4975H50.3487C49.8508 40.4975 49.5068 40.5789 49.3167 40.7419C49.1357 40.9048 49.0451 41.1085 49.0451 41.3529C49.0451 41.6245 49.1492 41.8418 49.3575 42.0047C49.5747 42.1586 49.8689 42.2356 50.2401 42.2356C50.5931 42.2356 50.91 42.1541 51.1906 41.9912C51.4712 41.8192 51.6749 41.5702 51.8017 41.2443L52.1276 42.222C51.9737 42.6927 51.693 43.0503 51.2857 43.2947C50.8783 43.5392 50.3532 43.6614 49.7105 43.6614ZM55.8372 43.5527V36.2473H57.9555V43.5527H55.8372ZM56.8963 35.2288C56.5071 35.2288 56.1902 35.1157 55.9458 34.8894C55.7014 34.663 55.5792 34.3824 55.5792 34.0475C55.5792 33.7125 55.7014 33.4319 55.9458 33.2056C56.1902 32.9793 56.5071 32.8661 56.8963 32.8661C57.2856 32.8661 57.6024 32.9747 57.8468 33.192C58.0913 33.4002 58.2135 33.6718 58.2135 34.0067C58.2135 34.3598 58.0913 34.654 57.8468 34.8894C57.6115 35.1157 57.2946 35.2288 56.8963 35.2288ZM64.3618 36.1386C64.9411 36.1386 65.4571 36.2563 65.9098 36.4917C66.3715 36.718 66.7336 37.071 66.9961 37.5508C67.2586 38.0216 67.3899 38.6281 67.3899 39.3704V43.5527H65.2716V39.6963C65.2716 39.1079 65.1403 38.6734 64.8778 38.3927C64.6243 38.1121 64.2622 37.9718 63.7915 37.9718C63.4565 37.9718 63.1532 38.0442 62.8817 38.1891C62.6191 38.3248 62.4109 38.5376 62.257 38.8273C62.1122 39.1169 62.0398 39.4881 62.0398 39.9407V43.5527H59.9215V36.2473H61.9447V38.2705L61.5645 37.6595C61.827 37.1706 62.2027 36.7949 62.6916 36.5324C63.1804 36.2699 63.7371 36.1386 64.3618 36.1386ZM73.305 43.5527V34.0475H77.949C79.1439 34.0475 80.0402 34.2738 80.6376 34.7264C81.2442 35.179 81.5474 35.7765 81.5474 36.5188C81.5474 37.0167 81.4252 37.4513 81.1808 37.8224C80.9364 38.1845 80.6014 38.4652 80.1759 38.6643C79.7505 38.8635 79.2616 38.963 78.7094 38.963L78.9674 38.4063C79.5649 38.4063 80.0945 38.5059 80.5562 38.705C81.0178 38.8952 81.3754 39.1803 81.6289 39.5605C81.8914 39.9407 82.0227 40.4069 82.0227 40.9592C82.0227 41.7739 81.7013 42.4121 81.0586 42.8738C80.4158 43.3264 79.4698 43.5527 78.2206 43.5527H73.305ZM75.4912 41.8961H78.0576C78.6279 41.8961 79.0579 41.8056 79.3476 41.6245C79.6464 41.4344 79.7957 41.1357 79.7957 40.7283C79.7957 40.33 79.6464 40.0358 79.3476 39.8457C79.0579 39.6465 78.6279 39.5469 78.0576 39.5469H75.3283V37.9446H77.6774C78.2115 37.9446 78.6189 37.8541 78.8995 37.673C79.1892 37.4829 79.334 37.1978 79.334 36.8176C79.334 36.4464 79.1892 36.1703 78.8995 35.9893C78.6189 35.7992 78.2115 35.7041 77.6774 35.7041H75.4912V41.8961ZM83.5387 43.5527V36.2473H85.562V38.3113L85.2768 37.7138C85.4941 37.1978 85.8426 36.8085 86.3224 36.546C86.8022 36.2744 87.3861 36.1386 88.0741 36.1386V38.094C87.9836 38.0849 87.9021 38.0804 87.8297 38.0804C87.7573 38.0714 87.6803 38.0668 87.5988 38.0668C87.0195 38.0668 86.5487 38.2343 86.1866 38.5693C85.8336 38.8952 85.6571 39.4066 85.6571 40.1037V43.5527H83.5387ZM92.9062 43.6614C92.0734 43.6614 91.3401 43.4984 90.7064 43.1725C90.0818 42.8466 89.5975 42.4031 89.2535 41.8418C88.9095 41.2715 88.7375 40.6242 88.7375 39.9C88.7375 39.1667 88.9049 38.5195 89.2399 37.9582C89.5839 37.3879 90.0501 36.9443 90.6385 36.6275C91.2269 36.3016 91.8923 36.1386 92.6346 36.1386C93.3498 36.1386 93.9925 36.2925 94.5628 36.6003C95.1422 36.899 95.5994 37.3336 95.9343 37.9039C96.2693 38.4652 96.4367 39.1396 96.4367 39.9272C96.4367 40.0086 96.4322 40.1037 96.4232 40.2123C96.4141 40.3119 96.405 40.4069 96.396 40.4975H90.462V39.2618H95.2825L94.4678 39.6284C94.4678 39.2482 94.3908 38.9178 94.2369 38.6372C94.083 38.3565 93.8703 38.1393 93.5987 37.9854C93.3272 37.8224 93.0103 37.7409 92.6482 37.7409C92.2861 37.7409 91.9647 37.8224 91.6841 37.9854C91.4125 38.1393 91.1998 38.3611 91.0459 38.6507C90.892 38.9314 90.815 39.2663 90.815 39.6556V39.9815C90.815 40.3798 90.901 40.7328 91.073 41.0406C91.2541 41.3394 91.503 41.5702 91.8199 41.7332C92.1458 41.8871 92.526 41.964 92.9605 41.964C93.3498 41.964 93.6893 41.9052 93.9789 41.7875C94.2777 41.6698 94.5493 41.4933 94.7937 41.2579L95.9207 42.48C95.5858 42.8602 95.1648 43.1544 94.6579 43.3626C94.1509 43.5618 93.567 43.6614 92.9062 43.6614ZM101.473 43.6614C100.64 43.6614 99.9065 43.4984 99.2728 43.1725C98.6482 42.8466 98.1639 42.4031 97.8199 41.8418C97.4759 41.2715 97.3039 40.6242 97.3039 39.9C97.3039 39.1667 97.4713 38.5195 97.8063 37.9582C98.1503 37.3879 98.6165 36.9443 99.2049 36.6275C99.7933 36.3016 100.459 36.1386 101.201 36.1386C101.916 36.1386 102.559 36.2925 103.129 36.6003C103.709 36.899 104.166 37.3336 104.501 37.9039C104.836 38.4652 105.003 39.1396 105.003 39.9272C105.003 40.0086 104.999 40.1037 104.99 40.2123C104.981 40.3119 104.971 40.4069 104.962 40.4975H99.0284V39.2618H103.849L103.034 39.6284C103.034 39.2482 102.957 38.9178 102.803 38.6372C102.649 38.3565 102.437 38.1393 102.165 37.9854C101.894 37.8224 101.577 37.7409 101.215 37.7409C100.853 37.7409 100.531 37.8224 100.251 37.9854C99.9789 38.1393 99.7662 38.3611 99.6123 38.6507C99.4584 38.9314 99.3815 39.2663 99.3815 39.6556V39.9815C99.3815 40.3798 99.4675 40.7328 99.6395 41.0406C99.8205 41.3394 100.069 41.5702 100.386 41.7332C100.712 41.8871 101.092 41.964 101.527 41.964C101.916 41.964 102.256 41.9052 102.545 41.7875C102.844 41.6698 103.116 41.4933 103.36 41.2579L104.487 42.48C104.152 42.8602 103.731 43.1544 103.224 43.3626C102.717 43.5618 102.133 43.6614 101.473 43.6614ZM105.845 43.5527V42.2763L110.163 37.1706L110.529 37.8767H105.94V36.2473H112.24V37.5237L107.922 42.6294L107.542 41.9233H112.363V43.5527H105.845ZM117.253 43.6614C116.42 43.6614 115.687 43.4984 115.053 43.1725C114.428 42.8466 113.944 42.4031 113.6 41.8418C113.256 41.2715 113.084 40.6242 113.084 39.9C113.084 39.1667 113.252 38.5195 113.587 37.9582C113.931 37.3879 114.397 36.9443 114.985 36.6275C115.574 36.3016 116.239 36.1386 116.981 36.1386C117.696 36.1386 118.339 36.2925 118.909 36.6003C119.489 36.899 119.946 37.3336 120.281 37.9039C120.616 38.4652 120.783 39.1396 120.783 39.9272C120.783 40.0086 120.779 40.1037 120.77 40.2123C120.761 40.3119 120.752 40.4069 120.743 40.4975H114.809V39.2618H119.629L118.814 39.6284C118.814 39.2482 118.737 38.9178 118.584 38.6372C118.43 38.3565 118.217 38.1393 117.945 37.9854C117.674 37.8224 117.357 37.7409 116.995 37.7409C116.633 37.7409 116.311 37.8224 116.031 37.9854C115.759 38.1393 115.546 38.3611 115.393 38.6507C115.239 38.9314 115.162 39.2663 115.162 39.6556V39.9815C115.162 40.3798 115.248 40.7328 115.42 41.0406C115.601 41.3394 115.85 41.5702 116.167 41.7332C116.492 41.8871 116.873 41.964 117.307 41.964C117.696 41.964 118.036 41.9052 118.326 41.7875C118.624 41.6698 118.896 41.4933 119.14 41.2579L120.267 42.48C119.932 42.8602 119.511 43.1544 119.005 43.3626C118.498 43.5618 117.914 43.6614 117.253 43.6614ZM126.189 43.5527V34.0475H130.303C131.154 34.0475 131.887 34.1878 132.503 34.4684C133.118 34.74 133.594 35.1338 133.929 35.6498C134.264 36.1658 134.431 36.7814 134.431 37.4965C134.431 38.2026 134.264 38.8137 133.929 39.3297C133.594 39.8366 133.118 40.2259 132.503 40.4975C131.887 40.7691 131.154 40.9048 130.303 40.9048H127.411L128.388 39.9407V43.5527H126.189ZM132.231 43.5527L129.855 40.1037H132.204L134.608 43.5527H132.231ZM128.388 40.1852L127.411 39.1532H130.181C130.86 39.1532 131.367 39.0083 131.702 38.7186C132.037 38.4199 132.204 38.0125 132.204 37.4965C132.204 36.9715 132.037 36.5641 131.702 36.2744C131.367 35.9847 130.86 35.8399 130.181 35.8399H127.411L128.388 34.7943V40.1852ZM139.65 43.6614C138.817 43.6614 138.084 43.4984 137.45 43.1725C136.826 42.8466 136.341 42.4031 135.997 41.8418C135.653 41.2715 135.481 40.6242 135.481 39.9C135.481 39.1667 135.649 38.5195 135.984 37.9582C136.328 37.3879 136.794 36.9443 137.382 36.6275C137.971 36.3016 138.636 36.1386 139.379 36.1386C140.094 36.1386 140.736 36.2925 141.307 36.6003C141.886 36.899 142.343 37.3336 142.678 37.9039C143.013 38.4652 143.181 39.1396 143.181 39.9272C143.181 40.0086 143.176 40.1037 143.167 40.2123C143.158 40.3119 143.149 40.4069 143.14 40.4975H137.206V39.2618H142.026L141.212 39.6284C141.212 39.2482 141.135 38.9178 140.981 38.6372C140.827 38.3565 140.614 38.1393 140.343 37.9854C140.071 37.8224 139.754 37.7409 139.392 37.7409C139.03 37.7409 138.709 37.8224 138.428 37.9854C138.156 38.1393 137.944 38.3611 137.79 38.6507C137.636 38.9314 137.559 39.2663 137.559 39.6556V39.9815C137.559 40.3798 137.645 40.7328 137.817 41.0406C137.998 41.3394 138.247 41.5702 138.564 41.7332C138.89 41.8871 139.27 41.964 139.704 41.964C140.094 41.964 140.433 41.9052 140.723 41.7875C141.022 41.6698 141.293 41.4933 141.538 41.2579L142.665 42.48C142.33 42.8602 141.909 43.1544 141.402 43.3626C140.895 43.5618 140.311 43.6614 139.65 43.6614ZM147.049 43.6614C146.424 43.6614 145.822 43.5889 145.243 43.4441C144.672 43.2902 144.22 43.1001 143.885 42.8738L144.591 41.3529C144.926 41.5612 145.32 41.7332 145.772 41.8689C146.234 41.9957 146.687 42.0591 147.13 42.0591C147.619 42.0591 147.963 42.0002 148.162 41.8825C148.37 41.7648 148.475 41.6019 148.475 41.3937C148.475 41.2217 148.393 41.0949 148.23 41.0135C148.076 40.9229 147.868 40.8551 147.605 40.8098C147.343 40.7645 147.053 40.7193 146.736 40.674C146.429 40.6287 146.116 40.5699 145.799 40.4975C145.483 40.416 145.193 40.2983 144.93 40.1444C144.668 39.9905 144.455 39.7823 144.292 39.5198C144.138 39.2573 144.061 38.9178 144.061 38.5014C144.061 38.0397 144.193 37.6323 144.455 37.2793C144.727 36.9262 145.116 36.6501 145.623 36.4509C146.13 36.2427 146.736 36.1386 147.443 36.1386C147.94 36.1386 148.447 36.1929 148.963 36.3016C149.479 36.4102 149.909 36.5686 150.253 36.7768L149.547 38.2841C149.194 38.0759 148.837 37.9356 148.475 37.8632C148.121 37.7817 147.777 37.7409 147.443 37.7409C146.972 37.7409 146.628 37.8043 146.411 37.931C146.193 38.0578 146.085 38.2207 146.085 38.4199C146.085 38.6009 146.162 38.7367 146.315 38.8273C146.478 38.9178 146.691 38.9902 146.954 39.0445C147.216 39.0988 147.501 39.1486 147.809 39.1939C148.126 39.2301 148.443 39.2889 148.76 39.3704C149.077 39.4519 149.362 39.5696 149.615 39.7235C149.878 39.8683 150.09 40.072 150.253 40.3345C150.416 40.588 150.498 40.9229 150.498 41.3394C150.498 41.792 150.362 42.1948 150.09 42.5479C149.819 42.8919 149.425 43.1635 148.909 43.3626C148.402 43.5618 147.782 43.6614 147.049 43.6614ZM155.281 43.6614C154.502 43.6614 153.81 43.4984 153.203 43.1725C152.606 42.8466 152.131 42.4031 151.778 41.8418C151.434 41.2715 151.262 40.6242 151.262 39.9C151.262 39.1667 151.434 38.5195 151.778 37.9582C152.131 37.3879 152.606 36.9443 153.203 36.6275C153.81 36.3016 154.502 36.1386 155.281 36.1386C156.05 36.1386 156.738 36.3016 157.345 36.6275C157.952 36.9443 158.427 37.3834 158.771 37.9446C159.115 38.5059 159.287 39.1577 159.287 39.9C159.287 40.6242 159.115 41.2715 158.771 41.8418C158.427 42.4031 157.952 42.8466 157.345 43.1725C156.738 43.4984 156.05 43.6614 155.281 43.6614ZM155.281 41.9233C155.634 41.9233 155.951 41.8418 156.232 41.6788C156.512 41.5159 156.734 41.2851 156.897 40.9863C157.06 40.6785 157.141 40.3164 157.141 39.9C157.141 39.4745 157.06 39.1124 156.897 38.8137C156.734 38.5149 156.512 38.2841 156.232 38.1212C155.951 37.9582 155.634 37.8767 155.281 37.8767C154.928 37.8767 154.611 37.9582 154.33 38.1212C154.05 38.2841 153.824 38.5149 153.652 38.8137C153.489 39.1124 153.407 39.4745 153.407 39.9C153.407 40.3164 153.489 40.6785 153.652 40.9863C153.824 41.2851 154.05 41.5159 154.33 41.6788C154.611 41.8418 154.928 41.9233 155.281 41.9233ZM160.703 43.5527V36.2473H162.726V38.3113L162.441 37.7138C162.658 37.1978 163.007 36.8085 163.486 36.546C163.966 36.2744 164.55 36.1386 165.238 36.1386V38.094C165.148 38.0849 165.066 38.0804 164.994 38.0804C164.921 38.0714 164.844 38.0668 164.763 38.0668C164.183 38.0668 163.713 38.2343 163.351 38.5693C162.998 38.8952 162.821 39.4066 162.821 40.1037V43.5527H160.703ZM169.737 43.6614C168.877 43.6614 168.207 43.4441 167.727 43.0096C167.247 42.566 167.008 41.9097 167.008 41.0406V34.6314H169.126V41.0135C169.126 41.3213 169.207 41.5612 169.37 41.7332C169.533 41.8961 169.755 41.9776 170.036 41.9776C170.371 41.9776 170.656 41.8871 170.891 41.706L171.461 43.1997C171.244 43.3536 170.982 43.4713 170.674 43.5527C170.375 43.6252 170.063 43.6614 169.737 43.6614ZM165.881 38.0397V36.4102H170.945V38.0397H165.881Z" fill="white"/>
<defs>
<clipPath id="clip0_1367_10306">
<rect width="64.9306" height="27.1579" fill="white" transform="translate(53.75)"/>
</clipPath>
</defs>
</svg>
