<svg width="20" height="20" viewBox="0 0 20 20" fill="none" xmlns="http://www.w3.org/2000/svg">
<path fill-rule="evenodd" clip-rule="evenodd" d="M3.5 2C2.67157 2 2 2.67157 2 3.5V16.5C2 17.3284 2.67157 18 3.5 18H16.5C17.3284 18 18 17.3284 18 16.5V3.5C18 2.67157 17.3284 2 16.5 2H3.5ZM7.80344 12.1954C9.64767 14.0388 11.4086 14.2821 12.03 14.3049C12.9806 14.3399 13.8945 13.6225 14.2556 12.7799C14.3007 12.6756 14.3169 12.5611 14.3025 12.4484C14.2882 12.3357 14.2438 12.229 14.1741 12.1393C13.6882 11.5173 13.0357 11.0672 12.4561 10.6674C12.417 10.6404 12.3782 10.6136 12.3398 10.5871C12.202 10.4918 12.0327 10.4534 11.8674 10.4801C11.702 10.5068 11.5534 10.5965 11.4526 10.7303L10.9046 11.5642C10.876 11.6092 10.8313 11.6415 10.7796 11.6545C10.7279 11.6675 10.6732 11.6602 10.6267 11.6341C10.2561 11.4218 9.71584 11.0603 9.32706 10.672C8.93871 10.2838 8.59955 9.76781 8.40883 9.42138C8.38512 9.37718 8.37826 9.32588 8.38953 9.277C8.4008 9.22813 8.42943 9.185 8.47011 9.15564L9.31196 8.53052C9.43237 8.42618 9.51017 8.28119 9.53054 8.12318C9.55091 7.96518 9.51243 7.80521 9.42242 7.67374C9.3819 7.61447 9.34072 7.5536 9.29874 7.49154C8.91688 6.92714 8.4686 6.26454 7.84659 5.81134C7.75752 5.74685 7.65322 5.70662 7.54391 5.69459C7.4346 5.68257 7.32403 5.69916 7.22307 5.74275C6.38467 6.10212 5.65889 7.02231 5.69341 7.96969C5.71671 8.59135 5.95965 10.3515 7.80344 12.1954Z" fill="white"/>
</svg>
