<svg width="16" height="16" viewBox="0 0 16 16" fill="none" xmlns="http://www.w3.org/2000/svg">
<path fill-rule="evenodd" clip-rule="evenodd" d="M1.5 0C0.671573 0 0 0.671573 0 1.5V14.5C0 15.3284 0.671573 16 1.5 16H14.5C15.3284 16 16 15.3284 16 14.5V1.5C16 0.671573 15.3284 0 14.5 0H1.5ZM5.80344 10.1954C7.64767 12.0388 9.40861 12.2821 10.03 12.3049C10.9806 12.3399 11.8945 11.6225 12.2556 10.7799C12.3007 10.6756 12.3169 10.5611 12.3025 10.4484C12.2882 10.3357 12.2438 10.229 12.1741 10.1393C11.6882 9.51731 11.0357 9.06722 10.4561 8.66737C10.417 8.64038 10.3782 8.61362 10.3398 8.58706C10.202 8.49176 10.0327 8.45345 9.86737 8.48014C9.702 8.50684 9.55337 8.59648 9.45262 8.73028L8.90462 9.5642C8.87602 9.60916 8.83128 9.64146 8.7796 9.65446C8.72791 9.66746 8.67321 9.66017 8.62674 9.63409C8.25608 9.42183 7.71584 9.06031 7.32706 8.67204C6.93871 8.28377 6.59955 7.76781 6.40883 7.42138C6.38512 7.37718 6.37826 7.32588 6.38953 7.277C6.4008 7.22813 6.42943 7.185 6.47011 7.15564L7.31196 6.53052C7.43237 6.42618 7.51017 6.28119 7.53054 6.12318C7.55091 5.96518 7.51243 5.80521 7.42242 5.67374C7.3819 5.61447 7.34072 5.5536 7.29874 5.49154C6.91688 4.92714 6.4686 4.26454 5.84659 3.81134C5.75752 3.74685 5.65322 3.70662 5.54391 3.69459C5.4346 3.68257 5.32403 3.69916 5.22307 3.74275C4.38467 4.10212 3.65889 5.02231 3.69341 5.96969C3.71671 6.59135 3.95965 8.35151 5.80344 10.1954Z" fill="white"/>
</svg>
