<svg width="20" height="20" viewBox="0 0 20 20" fill="none" xmlns="http://www.w3.org/2000/svg">
<path d="M17.0585 1.66613H2.9418C2.78311 1.66393 2.62555 1.69301 2.4781 1.7517C2.33066 1.8104 2.19622 1.89757 2.08246 2.00823C1.96871 2.11888 1.87786 2.25087 1.81512 2.39664C1.75238 2.54241 1.71897 2.69911 1.7168 2.8578V17.1411C1.71897 17.2998 1.75238 17.4565 1.81512 17.6023C1.87786 17.7481 1.96871 17.88 2.08246 17.9907C2.19622 18.1014 2.33066 18.1885 2.4781 18.2472C2.62555 18.3059 2.78311 18.335 2.9418 18.3328H17.0585C17.2171 18.335 17.3747 18.3059 17.5222 18.2472C17.6696 18.1885 17.804 18.1014 17.9178 17.9907C18.0316 17.88 18.1224 17.7481 18.1851 17.6023C18.2479 17.4565 18.2813 17.2998 18.2835 17.1411V2.8578C18.2813 2.69911 18.2479 2.54241 18.1851 2.39664C18.1224 2.25087 18.0316 2.11888 17.9178 2.00823C17.804 1.89757 17.6696 1.8104 17.5222 1.7517C17.3747 1.69301 17.2171 1.66393 17.0585 1.66613ZM6.7418 15.6161H4.2418V8.11613H6.7418V15.6161ZM5.4918 7.06613C5.14702 7.06613 4.81636 6.92917 4.57256 6.68537C4.32876 6.44157 4.1918 6.11091 4.1918 5.76613C4.1918 5.42135 4.32876 5.09069 4.57256 4.84689C4.81636 4.6031 5.14702 4.46613 5.4918 4.46613C5.67488 4.44537 5.86028 4.46351 6.03586 4.51937C6.21144 4.57523 6.37325 4.66754 6.51068 4.79027C6.64811 4.91299 6.75807 5.06336 6.83336 5.23153C6.90864 5.3997 6.94756 5.58188 6.94756 5.76613C6.94756 5.95039 6.90864 6.13256 6.83336 6.30073C6.75807 6.4689 6.64811 6.61927 6.51068 6.742C6.37325 6.86472 6.21144 6.95704 6.03586 7.0129C5.86028 7.06875 5.67488 7.08689 5.4918 7.06613ZM15.7585 15.6161H13.2585V11.5911C13.2585 10.5828 12.9001 9.92447 11.9918 9.92447C11.7107 9.92652 11.437 10.0147 11.2075 10.1771C10.978 10.3395 10.8039 10.5684 10.7085 10.8328C10.6433 11.0287 10.615 11.2349 10.6251 11.4411V15.6078H8.12513V8.1078H10.6251V9.16613C10.8522 8.77205 11.1826 8.4474 11.5805 8.22713C11.9784 8.00687 12.4289 7.89934 12.8835 7.91613C14.5501 7.91613 15.7585 8.99113 15.7585 11.2995V15.6161Z" fill="white"/>
</svg>
