<svg width="20" height="20" viewBox="0 0 20 20" fill="none" xmlns="http://www.w3.org/2000/svg">
<g id="uil:facebook">
<path id="Vector" d="M17.4165 1.66602H2.58317C2.34006 1.66602 2.1069 1.76259 1.93499 1.9345C1.76308 2.10641 1.6665 2.33957 1.6665 2.58268V17.416C1.6665 17.6591 1.76308 17.8923 1.93499 18.0642C2.1069 18.2361 2.34006 18.3327 2.58317 18.3327H10.5665V11.8743H8.39984V9.37435H10.5665V7.49935C10.5216 7.05915 10.5736 6.61445 10.7188 6.19646C10.8639 5.77847 11.0988 5.3973 11.4069 5.07969C11.715 4.76208 12.0888 4.51572 12.5022 4.35788C12.9156 4.20004 13.3585 4.13456 13.7998 4.16602C14.4484 4.16202 15.0967 4.19541 15.7415 4.26602V6.51602H14.4165C13.3665 6.51602 13.1665 7.01602 13.1665 7.74102V9.34935H15.6665L15.3415 11.8493H13.1665V18.3327H17.4165C17.5369 18.3327 17.6561 18.309 17.7673 18.2629C17.8785 18.2168 17.9796 18.1493 18.0647 18.0642C18.1498 17.9791 18.2173 17.878 18.2634 17.7668C18.3095 17.6556 18.3332 17.5364 18.3332 17.416V2.58268C18.3332 2.4623 18.3095 2.3431 18.2634 2.23189C18.2173 2.12067 18.1498 2.01962 18.0647 1.9345C17.9796 1.84938 17.8785 1.78186 17.7673 1.73579C17.6561 1.68973 17.5369 1.66602 17.4165 1.66602Z" fill="white"/>
</g>
</svg>
