<svg width="20" height="20" viewBox="0 0 20 20" fill="none" xmlns="http://www.w3.org/2000/svg">
<path fill-rule="evenodd" clip-rule="evenodd" d="M16.8169 2.00011H3.1831C3.02984 1.99798 2.87767 2.02607 2.73526 2.08276C2.59286 2.13944 2.46302 2.22363 2.35316 2.3305C2.24329 2.43738 2.15556 2.56485 2.09496 2.70563C2.03437 2.84642 2.0021 2.99776 2 3.15102V16.9458C2.0021 17.099 2.03437 17.2504 2.09496 17.3912C2.15556 17.532 2.24329 17.6594 2.35316 17.7663C2.46302 17.8732 2.59286 17.9574 2.73526 18.014C2.87767 18.0707 3.02984 18.0988 3.1831 18.0967H16.8169C16.9702 18.0988 17.1223 18.0707 17.2647 18.014C17.4071 17.9574 17.537 17.8732 17.6468 17.7663C17.7567 17.6594 17.8444 17.532 17.905 17.3912C17.9656 17.2504 17.9979 17.099 18 16.9458V3.15102C17.9979 2.99776 17.9656 2.84642 17.905 2.70563C17.8444 2.56485 17.7567 2.43738 17.6468 2.3305C17.537 2.22363 17.4071 2.13944 17.2647 2.08276C17.1223 2.02607 16.9702 1.99798 16.8169 2.00011ZM12.2682 10.8293C12.8699 10.4819 12.8699 9.61331 12.2682 9.2659L8.93977 7.34426C8.33803 6.99684 7.58585 7.43111 7.58585 8.12594L7.58585 11.9692C7.58585 12.6641 8.33803 13.0983 8.93977 12.7509L12.2682 10.8293Z" fill="white"/>
</svg>
