<svg width="43" height="43" viewBox="0 0 43 43" fill="none" xmlns="http://www.w3.org/2000/svg">
<path fill-rule="evenodd" clip-rule="evenodd" d="M31.4833 42.1106C28.4833 42.0001 19.9812 40.8251 11.077 31.9231C2.17492 23.0189 1.002 14.5189 0.889502 11.5168C0.722835 6.94181 4.227 2.49806 8.27492 0.762644C8.76237 0.552158 9.29617 0.47202 9.82394 0.530093C10.3517 0.588166 10.8553 0.782454 11.2853 1.09389C14.6187 3.52306 16.9187 7.19806 18.8937 10.0876C19.3282 10.7225 19.514 11.495 19.4157 12.2581C19.3173 13.0211 18.9417 13.7212 18.3603 14.2251L14.2958 17.2439C14.0994 17.3857 13.9612 17.594 13.9067 17.83C13.8523 18.066 13.8854 18.3138 13.9999 18.5272C14.9208 20.2001 16.5583 22.6918 18.4333 24.5668C20.3103 26.4418 22.9187 28.1876 24.7083 29.2126C24.9326 29.3386 25.1967 29.3738 25.4463 29.311C25.6958 29.2483 25.9118 29.0923 26.0499 28.8751L28.6958 24.8481C29.1822 24.2019 29.8998 23.769 30.6982 23.6401C31.4966 23.5112 32.314 23.6962 32.9791 24.1564C35.9103 26.1856 39.3312 28.446 41.8353 31.6522C42.1721 32.0854 42.3862 32.601 42.4555 33.1452C42.5248 33.6895 42.4466 34.2423 42.2291 34.746C40.4853 38.8147 36.0728 42.2793 31.4833 42.1106Z" fill="#004E6B"/>
</svg>
