<svg width="42" height="36" viewBox="0 0 42 36" fill="none" xmlns="http://www.w3.org/2000/svg">
<path fill-rule="evenodd" clip-rule="evenodd" d="M28.842 0.333984C30.0025 0.334024 31.1401 0.65718 32.1273 1.26725C33.1146 1.87733 33.9124 2.75022 34.4316 3.78815L37.3191 9.56107C37.8274 9.35273 38.3274 9.12773 38.8191 8.88607C39.3136 8.63908 39.886 8.59867 40.4103 8.7737C40.9346 8.94873 41.3679 9.32488 41.6149 9.8194C41.8619 10.3139 41.9023 10.8863 41.7273 11.4106C41.5522 11.9349 41.1761 12.3683 40.6816 12.6152C40.1808 12.8381 39.6773 13.0548 39.1712 13.2652L41.1732 17.2715C41.6078 18.1401 41.8339 19.0981 41.8337 20.0694V25.334C41.835 26.2135 41.65 27.0834 41.2909 27.8863C40.9318 28.6892 40.4068 29.4069 39.7503 29.9923V32.6257C39.7503 33.4545 39.4211 34.2493 38.835 34.8354C38.249 35.4214 37.4541 35.7507 36.6253 35.7507C35.7965 35.7507 35.0017 35.4214 34.4156 34.8354C33.8296 34.2493 33.5003 33.4545 33.5003 32.6257V31.584H8.50033V32.6257C8.50033 33.4545 8.17109 34.2493 7.58503 34.8354C6.99898 35.4214 6.20413 35.7507 5.37533 35.7507C4.54652 35.7507 3.75167 35.4214 3.16562 34.8354C2.57957 34.2493 2.25033 33.4545 2.25033 32.6257V29.9923C0.971159 28.8465 0.166992 27.184 0.166992 25.334V20.0673C0.167382 19.0974 0.393484 18.141 0.827409 17.2736L2.81283 13.2986C2.31074 13.0861 1.81283 12.8611 1.32324 12.6173C0.831224 12.3671 0.457221 11.9336 0.281852 11.4102C0.106483 10.8869 0.143794 10.3155 0.385742 9.8194C0.507948 9.57446 0.677226 9.356 0.883901 9.17652C1.09058 8.99703 1.3306 8.86003 1.59025 8.77336C1.84989 8.68668 2.12408 8.65202 2.39713 8.67136C2.67018 8.6907 2.93674 8.76366 3.18158 8.88607C3.67324 9.12982 4.17532 9.35273 4.68157 9.56107L7.56908 3.79023C8.08793 2.75191 8.88567 1.87859 9.87292 1.26814C10.8602 0.657685 11.9979 0.334217 13.1587 0.333984H28.842ZM11.6253 19.084C10.7965 19.084 10.0017 19.4132 9.41562 19.9993C8.82957 20.5853 8.50033 21.3802 8.50033 22.209C8.50033 23.0378 8.82957 23.8326 9.41562 24.4187C10.0017 25.0047 10.7965 25.334 11.6253 25.334C12.4541 25.334 13.249 25.0047 13.835 24.4187C14.4211 23.8326 14.7503 23.0378 14.7503 22.209C14.7503 21.3802 14.4211 20.5853 13.835 19.9993C13.249 19.4132 12.4541 19.084 11.6253 19.084ZM30.3753 19.084C29.5465 19.084 28.7517 19.4132 28.1656 19.9993C27.5796 20.5853 27.2503 21.3802 27.2503 22.209C27.2503 23.0378 27.5796 23.8326 28.1656 24.4187C28.7517 25.0047 29.5465 25.334 30.3753 25.334C31.2041 25.334 31.999 25.0047 32.585 24.4187C33.1711 23.8326 33.5003 23.0378 33.5003 22.209C33.5003 21.3802 33.1711 20.5853 32.585 19.9993C31.999 19.4132 31.2041 19.084 30.3753 19.084ZM28.842 4.50065H13.1587C12.8158 4.5006 12.4781 4.58519 12.1758 4.74691C11.8734 4.90864 11.6156 5.14249 11.4253 5.42774L11.2962 5.65273L8.65032 10.9402C11.8753 11.9069 16.2212 12.834 21.0003 12.834C25.4628 12.834 29.5441 12.0257 32.6878 11.1319L33.3482 10.9402L30.7045 5.65273C30.5512 5.3461 30.3245 5.08204 30.0447 4.88398C29.7649 4.68592 29.4405 4.55997 29.1003 4.51732L28.8441 4.50065H28.842Z" fill="#004E6B"/>
</svg>
