<svg width="18" height="18" viewBox="0 0 18 18" fill="none" xmlns="http://www.w3.org/2000/svg">
<path fill-rule="evenodd" clip-rule="evenodd" d="M16.0585 0.668085H1.9418C1.78311 0.665881 1.62555 0.694958 1.4781 0.753655C1.33066 0.812352 1.19622 0.899519 1.08246 1.01018C0.968707 1.12084 0.877865 1.25282 0.815123 1.39859C0.752382 1.54436 0.718971 1.70107 0.716797 1.85975V16.1431C0.718971 16.3018 0.752382 16.4585 0.815123 16.6042C0.877865 16.75 0.968707 16.882 1.08246 16.9927C1.19622 17.1033 1.33066 17.1905 1.4781 17.2492C1.62555 17.3079 1.78311 17.337 1.9418 17.3348H16.0585C16.2171 17.337 16.3747 17.3079 16.5222 17.2492C16.6696 17.1905 16.804 17.1033 16.9178 16.9927C17.0316 16.882 17.1224 16.75 17.1851 16.6042C17.2479 16.4585 17.2813 16.3018 17.2835 16.1431V1.85975C17.2813 1.70107 17.2479 1.54436 17.1851 1.39859C17.1224 1.25282 17.0316 1.12084 16.9178 1.01018C16.804 0.899519 16.6696 0.812352 16.5222 0.753655C16.3747 0.694958 16.2171 0.665881 16.0585 0.668085ZM14.5 5.25C14.5 5.94036 13.9404 6.5 13.25 6.5C12.5596 6.5 12 5.94036 12 5.25C12 4.55964 12.5596 4 13.25 4C13.9404 4 14.5 4.55964 14.5 5.25ZM9 12.75C11.0711 12.75 12.75 11.0711 12.75 9C12.75 6.92893 11.0711 5.25 9 5.25C6.92893 5.25 5.25 6.92893 5.25 9C5.25 11.0711 6.92893 12.75 9 12.75ZM9.00008 11.0846C10.1507 11.0846 11.0834 10.1519 11.0834 9.0013C11.0834 7.85071 10.1507 6.91797 9.00008 6.91797C7.84949 6.91797 6.91675 7.85071 6.91675 9.0013C6.91675 10.1519 7.84949 11.0846 9.00008 11.0846Z" fill="#004E6B"/>
</svg>
