<svg width="37" height="44" viewBox="0 0 37 44" fill="none" xmlns="http://www.w3.org/2000/svg">
<path d="M36.4583 14.6048C34.2708 4.97982 25.875 0.646484 18.5 0.646484C18.5 0.646484 18.5 0.646484 18.4791 0.646484C11.125 0.646484 2.70829 4.95898 0.520788 14.584C-1.91671 25.334 4.66662 34.4381 10.625 40.1673C12.8333 42.2923 15.6666 43.3548 18.5 43.3548C21.3333 43.3548 24.1666 42.2923 26.3541 40.1673C32.3125 34.4381 38.8958 25.3548 36.4583 14.6048ZM18.5 25.0423C14.875 25.0423 11.9375 22.1048 11.9375 18.4798C11.9375 14.8548 14.875 11.9173 18.5 11.9173C22.125 11.9173 25.0625 14.8548 25.0625 18.4798C25.0625 22.1048 22.125 25.0423 18.5 25.0423Z" fill="#004E6B"/>
</svg>
