<svg width="50" height="50" viewBox="0 0 50 50" fill="none" xmlns="http://www.w3.org/2000/svg">
<path d="M16.0816 7.34396C16.3701 7.20953 16.6663 7.44666 16.6663 7.76498V36.6235C16.6663 36.8467 16.5169 37.0395 16.309 37.1207C16.1619 37.1782 16.0254 37.2423 15.8955 37.3132L10.9997 40.1048C7.58301 42.0632 4.77051 40.4382 4.77051 36.4798V16.209C4.77051 14.8965 5.70801 13.2715 6.87467 12.6048L15.8955 7.43815C15.956 7.40518 16.0179 7.37365 16.0816 7.34396Z" fill="#004E6B"/>
<path d="M30.9719 12.8629C31.1422 12.9473 31.25 13.1209 31.25 13.311V41.9118C31.25 42.2803 30.865 42.5222 30.533 42.3622L20.5955 37.5745C20.4225 37.4911 20.3125 37.3161 20.3125 37.124V8.38956C20.3125 8.0187 20.7021 7.77691 21.0344 7.9415L30.9719 12.8629Z" fill="#004E6B"/>
<path d="M45.833 13.5216V33.7924C45.833 35.1049 44.8955 36.73 43.7288 37.3966L35.6441 42.0301C35.3108 42.2211 34.8955 41.9805 34.8955 41.5963V12.8744C34.8955 12.6949 34.9917 12.5292 35.1476 12.4402L39.6038 9.89662C43.0205 7.93829 45.833 9.56329 45.833 13.5216Z" fill="#004E6B"/>
</svg>
