<svg width="31" height="30" viewBox="0 0 31 30" fill="none" xmlns="http://www.w3.org/2000/svg">
<path fill-rule="evenodd" clip-rule="evenodd" d="M0.419922 2.76953C0.419922 1.66496 1.31535 0.769531 2.41992 0.769531H28.219C29.3236 0.769531 30.219 1.66496 30.219 2.76953V27.6154C30.219 28.7199 29.3236 29.6154 28.219 29.6154H2.41992C1.31535 29.6154 0.419922 28.7199 0.419922 27.6154V2.76953ZM15.3194 21.9374C18.8762 21.9374 21.7297 19.0755 21.7297 15.582C21.7297 12.0885 18.8762 9.22656 15.3194 9.22656C11.7626 9.22656 8.90918 12.0885 8.90918 15.582C8.90918 19.0755 11.7626 21.9374 15.3194 21.9374ZM15.3194 24.9374C20.5165 24.9374 24.7297 20.7488 24.7297 15.582C24.7297 10.4151 20.5165 6.22656 15.3194 6.22656C10.1223 6.22656 5.90918 10.4151 5.90918 15.582C5.90918 20.7488 10.1223 24.9374 15.3194 24.9374ZM24.729 2.7191C25.8118 2.7191 26.6895 3.59172 26.6895 4.66814C26.6895 5.74457 25.8118 6.61719 24.729 6.61719C23.6463 6.61719 22.7686 5.74457 22.7686 4.66814C22.7686 3.59172 23.6463 2.7191 24.729 2.7191Z" fill="white"/>
</svg>
