<svg width="16" height="17" viewBox="0 0 16 17" fill="none" xmlns="http://www.w3.org/2000/svg">
<path fill-rule="evenodd" clip-rule="evenodd" d="M14.8169 0.00011254H1.1831C1.02984 -0.00201593 0.877667 0.0260663 0.735264 0.0827554C0.592861 0.139445 0.463021 0.22363 0.353157 0.330504C0.243293 0.437379 0.155559 0.564848 0.0949633 0.705633C0.0343681 0.846418 0.00209931 0.997761 0 1.15102V14.9458C0.00209931 15.099 0.0343681 15.2504 0.0949633 15.3912C0.155559 15.532 0.243293 15.6594 0.353157 15.7663C0.463021 15.8732 0.592861 15.9574 0.735264 16.014C0.877667 16.0707 1.02984 16.0988 1.1831 16.0967H14.8169C14.9702 16.0988 15.1223 16.0707 15.2647 16.014C15.4071 15.9574 15.537 15.8732 15.6468 15.7663C15.7567 15.6594 15.8444 15.532 15.905 15.3912C15.9656 15.2504 15.9979 15.099 16 14.9458V1.15102C15.9979 0.997761 15.9656 0.846418 15.905 0.705633C15.8444 0.564848 15.7567 0.437379 15.6468 0.330504C15.537 0.22363 15.4071 0.139445 15.2647 0.0827554C15.1223 0.0260663 14.9702 -0.00201593 14.8169 0.00011254ZM10.2679 8.82927C10.8696 8.48185 10.8696 7.61331 10.2679 7.2659L6.93953 5.34426C6.33779 4.99684 5.58561 5.43111 5.58561 6.12594L5.58561 9.96922C5.58561 10.6641 6.33779 11.0983 6.93953 10.7509L10.2679 8.82927Z" fill="#004E6B"/>
</svg>
