<svg width="68" height="48" viewBox="0 0 68 48" fill="none" xmlns="http://www.w3.org/2000/svg">
<path d="M0 0V42.3911H68V0H0ZM66.3782 40.8458C66.1658 41.0366 65.9341 41.151 65.6831 41.2273C65.4321 41.2846 65.1811 41.3037 64.9495 41.3037C48.4418 41.2846 31.6638 41.2846 15.4458 41.2846H3.06985C2.83816 41.2846 2.60647 41.2655 2.37479 41.2655C2.25894 41.2655 2.16241 41.2464 2.02726 41.2464L1.29358 41.2083V1.25914H66.7257L66.7643 1.9841C66.7643 2.09857 66.7836 2.21304 66.7836 2.3275C66.8029 2.57552 66.8223 2.82353 66.8223 3.09062C66.8223 6.33386 66.8223 9.57711 66.8223 12.8203C66.8223 21.5389 66.8223 30.5628 66.8416 39.4149C66.8416 39.911 66.7836 40.4452 66.3782 40.8458Z" fill="#282828"/>
<path d="M0 0V42.3911H68V0H0ZM66.3782 40.8458C66.1658 41.0366 65.9341 41.151 65.6831 41.2273C65.4321 41.2846 65.1811 41.3037 64.9495 41.3037C48.4418 41.2846 31.6638 41.2846 15.4458 41.2846H3.06985C2.83816 41.2846 2.60647 41.2655 2.37479 41.2655C2.25894 41.2655 2.16241 41.2464 2.02726 41.2464L1.29358 41.2083V1.25914H66.7257L66.7643 1.9841C66.7643 2.09857 66.7836 2.21304 66.7836 2.3275C66.8029 2.57552 66.8223 2.82353 66.8223 3.09062C66.8223 6.33386 66.8223 9.57711 66.8223 12.8203C66.8223 21.5389 66.8223 30.5628 66.8416 39.4149C66.8416 39.911 66.7836 40.4452 66.3782 40.8458Z" fill="#282828"/>
<path d="M54.1375 47.3878C54.1375 47.6549 54.0602 47.9029 53.5583 47.9793C53.481 47.9983 53.4038 47.9983 53.288 47.9983C53.2107 47.9983 53.1335 47.9983 53.0756 47.9983C52.979 47.9983 52.9018 47.9983 52.8246 47.9983H15.0983C15.0018 47.9983 14.9052 47.9983 14.8087 47.9983C14.7315 47.9983 14.6542 47.9983 14.577 47.9983C14.4805 47.9983 14.4032 47.9983 14.3453 47.9793C13.8626 47.9029 13.7854 47.7122 13.7854 47.3878C13.7854 46.9872 13.9206 46.8537 14.3067 46.7964C14.4418 46.7773 14.5963 46.7773 14.7315 46.7773H15.079C21.3731 46.7773 27.648 46.7773 33.9421 46.7773C40.2363 46.7773 53.037 46.7773 53.037 46.7773C53.2107 46.7773 53.4038 46.7773 53.5969 46.7964C53.983 46.8537 54.1375 47.0254 54.1375 47.3878Z" fill="#282828"/>
<path d="M54.1375 47.3878C54.1375 47.6549 54.0602 47.9029 53.5583 47.9793C53.481 47.9983 53.4038 47.9983 53.288 47.9983C53.2107 47.9983 53.1335 47.9983 53.0756 47.9983C52.979 47.9983 52.9018 47.9983 52.8246 47.9983H15.0983C15.0018 47.9983 14.9052 47.9983 14.8087 47.9983C14.7315 47.9983 14.6542 47.9983 14.577 47.9983C14.4805 47.9983 14.4032 47.9983 14.3453 47.9793C13.8626 47.9029 13.7854 47.7122 13.7854 47.3878C13.7854 46.9872 13.9206 46.8537 14.3067 46.7964C14.4418 46.7773 14.5963 46.7773 14.7315 46.7773H15.079C21.3731 46.7773 27.648 46.7773 33.9421 46.7773C40.2363 46.7773 53.037 46.7773 53.037 46.7773C53.2107 46.7773 53.4038 46.7773 53.5969 46.7964C53.983 46.8537 54.1375 47.0254 54.1375 47.3878Z" fill="#282828"/>
</svg>
