<svg width="24" height="58" viewBox="0 0 24 58" fill="none" xmlns="http://www.w3.org/2000/svg">
<path d="M24 43.0606L20.908 15.8182H16.1963C18.8466 14.3535 20.6135 11.5707 20.6135 8.49495C20.6135 3.80808 16.7853 0 12.0736 0C7.36196 0 3.53374 3.80808 3.53374 8.49495C3.53374 11.7172 5.30061 14.3535 7.95092 15.8182H3.09202L0 43.0606H5.00614L6.77301 58H17.3742L19.1411 43.0606H24ZM16.3436 56.9748H7.65644L6.03681 43.2071H17.816L16.3436 56.9748ZM4.56442 8.49495C4.56442 4.39394 7.95092 1.02525 12.0736 1.02525C16.1963 1.02525 19.5828 4.39394 19.5828 8.49495C19.5828 12.4495 16.3436 15.8182 12.3681 15.8182H11.7791C7.80368 15.8182 4.56442 12.4495 4.56442 8.49495ZM4.1227 16.9899H11.7791C11.9264 16.9899 11.9264 16.9899 12.0736 16.9899C12.2209 16.9899 12.2209 16.9899 12.3681 16.9899H20.0245L22.9693 42.0354H1.17791L4.1227 16.9899Z" fill="#282828"/>
</svg>
