<svg width="83" height="37" viewBox="0 0 83 37" fill="none" xmlns="http://www.w3.org/2000/svg">
<path d="M79.7982 12.5387V3.73262C79.7982 1.66699 78.1312 0 76.0656 0H6.59549C4.52987 0 2.82664 1.66699 2.82664 3.73262V12.5387C1.15965 13.046 0 14.6043 0 16.3438V37H1.44956V26.9618H81.1753V37H82.6249V16.3438C82.6249 14.6043 81.4652 13.046 79.7982 12.5387ZM6.59549 1.44956H76.0656C77.334 1.44956 78.3487 2.46425 78.3487 3.73262V12.2125H4.2762V3.73262C4.2762 2.46425 5.32713 1.44956 6.59549 1.44956ZM81.1753 16.3438V25.5122H1.44956V16.3438C1.44956 14.9667 2.57297 13.8071 3.98629 13.8071H78.6386C80.0519 13.8071 81.1753 14.9667 81.1753 16.3438Z" fill="#282828"/>
</svg>
